<?xml version="1.0" encoding="UTF-8"?>
<svg xmlns="http://www.w3.org/2000/svg" xmlns:xlink="http://www.w3.org/1999/xlink" width="75px" height="75px" viewBox="0 0 75 75" version="1.1">
<g id="surface1">
<path style=" stroke:none;fill-rule:nonzero;fill:rgb(83.137255%,67.843137%,34.117647%);fill-opacity:1;" d="M 37.5 6.757812 C 47.511719 6.757812 48.699219 6.792969 52.652344 6.976562 C 56.742188 7.164062 60.949219 8.09375 63.929688 11.070312 C 66.933594 14.078125 67.835938 18.246094 68.023438 22.347656 C 68.207031 26.300781 68.242188 27.488281 68.242188 37.5 C 68.242188 47.511719 68.207031 48.699219 68.023438 52.652344 C 67.839844 56.71875 66.886719 60.96875 63.929688 63.929688 C 60.921875 66.933594 56.757812 67.835938 52.652344 68.023438 C 48.699219 68.207031 47.511719 68.242188 37.5 68.242188 C 27.488281 68.242188 26.300781 68.207031 22.347656 68.023438 C 18.3125 67.839844 14.007812 66.867188 11.070312 63.929688 C 8.082031 60.9375 7.164062 56.726562 6.976562 52.652344 C 6.792969 48.699219 6.757812 47.511719 6.757812 37.5 C 6.757812 27.488281 6.792969 26.300781 6.976562 22.347656 C 7.160156 18.296875 8.121094 14.023438 11.070312 11.070312 C 14.070312 8.070312 18.257812 7.164062 22.347656 6.976562 C 26.300781 6.792969 27.488281 6.757812 37.5 6.757812 M 37.5 0 C 27.316406 0 26.039062 0.0429688 22.039062 0.226562 C 16.242188 0.492188 10.484375 2.101562 6.292969 6.292969 C 2.085938 10.5 0.492188 16.242188 0.226562 22.039062 C 0.0429688 26.039062 0 27.316406 0 37.5 C 0 47.683594 0.0429688 48.960938 0.226562 52.960938 C 0.492188 58.753906 2.109375 64.523438 6.292969 68.707031 C 10.496094 72.910156 16.25 74.507812 22.039062 74.773438 C 26.039062 74.957031 27.316406 75 37.5 75 C 47.683594 75 48.960938 74.957031 52.960938 74.773438 C 58.757812 74.507812 64.519531 72.894531 68.707031 68.707031 C 72.914062 64.496094 74.507812 58.757812 74.773438 52.960938 C 74.957031 48.960938 75 47.683594 75 37.5 C 75 27.316406 74.957031 26.039062 74.773438 22.039062 C 74.507812 16.242188 72.894531 10.480469 68.707031 6.292969 C 64.507812 2.097656 58.742188 0.488281 52.960938 0.226562 C 48.960938 0.0429688 47.683594 0 37.5 0 Z M 37.5 0 "/>
<path style=" stroke:none;fill-rule:nonzero;fill:rgb(83.137255%,67.843137%,34.117647%);fill-opacity:1;" d="M 37.5 18.242188 C 26.867188 18.242188 18.242188 26.867188 18.242188 37.5 C 18.242188 48.132812 26.867188 56.757812 37.5 56.757812 C 48.132812 56.757812 56.757812 48.132812 56.757812 37.5 C 56.757812 26.867188 48.132812 18.242188 37.5 18.242188 Z M 37.5 50 C 30.597656 50 25 44.402344 25 37.5 C 25 30.597656 30.597656 25 37.5 25 C 44.402344 25 50 30.597656 50 37.5 C 50 44.402344 44.402344 50 37.5 50 Z M 37.5 50 "/>
<path style=" stroke:none;fill-rule:nonzero;fill:rgb(83.137255%,67.843137%,34.117647%);fill-opacity:1;" d="M 62.019531 17.480469 C 62.019531 19.964844 60.003906 21.980469 57.519531 21.980469 C 55.035156 21.980469 53.019531 19.964844 53.019531 17.480469 C 53.019531 14.996094 55.035156 12.980469 57.519531 12.980469 C 60.003906 12.980469 62.019531 14.996094 62.019531 17.480469 Z M 62.019531 17.480469 "/>
</g>
</svg>
