<?xml version="1.0" standalone="no"?>
<!DOCTYPE svg PUBLIC "-//W3C//DTD SVG 20010904//EN"
 "http://www.w3.org/TR/2001/REC-SVG-20010904/DTD/svg10.dtd">
<svg version="1.0" xmlns="http://www.w3.org/2000/svg"
 width="1107.000000pt" height="1175.000000pt" viewBox="0 0 1107.000000 1175.000000"
 preserveAspectRatio="xMidYMid meet">

<g transform="translate(0.000000,1175.000000) scale(0.100000,-0.100000)"
fill="#000000" stroke="none">
<path d="M5380 11588 c-30 -11 -62 -26 -71 -34 -8 -8 -19 -14 -23 -14 -3 0
-22 -16 -42 -35 -19 -19 -38 -35 -42 -35 -4 0 -26 -18 -50 -40 -23 -22 -47
-40 -52 -40 -6 0 -24 -13 -42 -30 -17 -16 -35 -30 -39 -30 -4 0 -19 -11 -33
-25 -14 -14 -30 -25 -36 -25 -5 0 -10 -4 -10 -10 0 -5 -4 -10 -9 -10 -5 0 -26
-17 -48 -37 -55 -53 -82 -73 -93 -73 -6 0 -10 -4 -10 -10 0 -5 -5 -10 -10 -10
-6 0 -21 -10 -34 -22 -35 -35 -75 -68 -82 -68 -3 0 -19 -13 -34 -30 -15 -16
-32 -30 -37 -30 -4 0 -29 -20 -55 -45 -27 -25 -53 -45 -58 -45 -6 0 -21 -10
-34 -22 -12 -13 -35 -32 -50 -43 -16 -11 -39 -30 -52 -42 -13 -13 -26 -23 -29
-23 -5 0 -18 -11 -80 -67 -13 -13 -28 -23 -32 -23 -5 0 -15 -9 -23 -20 -8 -11
-21 -20 -29 -20 -7 0 -21 -8 -30 -18 -9 -10 -34 -31 -56 -47 -22 -17 -52 -42
-67 -57 -14 -16 -30 -28 -35 -28 -5 0 -31 -20 -56 -45 -26 -25 -52 -45 -58
-45 -5 0 -20 -10 -33 -22 -12 -13 -35 -32 -50 -43 -16 -11 -39 -30 -52 -42
-13 -13 -26 -23 -29 -23 -3 0 -17 -10 -30 -22 -64 -59 -75 -68 -82 -68 -5 0
-15 -9 -23 -20 -8 -11 -21 -20 -28 -20 -8 0 -26 -13 -40 -28 -15 -15 -45 -41
-67 -57 -22 -17 -47 -38 -56 -47 -9 -10 -21 -18 -26 -18 -6 0 -31 -20 -56 -45
-26 -25 -51 -45 -57 -45 -6 0 -21 -10 -34 -22 -12 -13 -35 -32 -50 -43 -16
-11 -39 -30 -52 -42 -13 -13 -26 -23 -29 -23 -3 0 -17 -10 -29 -22 -13 -13
-37 -33 -52 -45 -16 -12 -39 -31 -51 -42 -12 -12 -27 -21 -32 -21 -6 0 -32
-20 -58 -45 -25 -25 -51 -45 -56 -45 -5 0 -21 -12 -35 -28 -15 -15 -45 -40
-67 -57 -22 -16 -47 -37 -56 -47 -9 -10 -21 -18 -28 -18 -6 0 -11 -4 -11 -10
0 -5 -5 -10 -11 -10 -6 0 -16 -6 -24 -12 -7 -7 -30 -26 -50 -43 -20 -16 -47
-40 -60 -52 -13 -13 -27 -23 -30 -23 -3 0 -17 -10 -30 -22 -65 -60 -75 -68
-85 -68 -5 0 -10 -4 -10 -10 0 -5 -7 -10 -15 -10 -8 0 -15 -4 -15 -10 0 -5 -5
-10 -10 -10 -6 0 -21 -10 -34 -22 -36 -36 -76 -68 -82 -68 -4 0 -14 -8 -23
-18 -9 -9 -34 -30 -56 -47 -22 -16 -51 -41 -65 -55 -14 -14 -37 -31 -52 -39
-25 -13 -61 -42 -125 -101 -12 -11 -25 -20 -28 -20 -3 0 -17 -11 -31 -25 -14
-14 -29 -25 -33 -25 -5 0 -27 -18 -50 -40 -22 -22 -45 -40 -50 -40 -5 0 -31
-20 -57 -45 -27 -25 -53 -45 -57 -45 -4 0 -18 -10 -31 -22 -12 -13 -35 -32
-51 -43 -15 -11 -43 -35 -61 -52 -18 -18 -36 -33 -39 -33 -5 0 -32 -21 -73
-57 -14 -13 -29 -23 -33 -23 -4 0 -19 -11 -33 -25 -14 -14 -28 -25 -31 -25 -3
0 -16 -10 -29 -22 -13 -13 -36 -32 -51 -43 -16 -11 -41 -32 -58 -47 -16 -16
-33 -28 -37 -28 -5 0 -27 -18 -50 -40 -23 -22 -46 -40 -51 -40 -5 0 -28 -18
-50 -40 -23 -22 -45 -40 -50 -40 -5 0 -24 -16 -43 -35 -20 -19 -40 -35 -46
-35 -5 0 -10 -4 -10 -8 0 -4 -18 -19 -40 -32 -22 -14 -40 -31 -40 -37 0 -7 -6
-13 -13 -13 -7 0 -23 -9 -35 -20 -12 -11 -23 -20 -26 -20 -14 0 -166 -147
-166 -160 0 -5 -4 -10 -8 -10 -5 0 -17 -16 -28 -35 -10 -19 -21 -35 -25 -35
-3 0 -17 -25 -30 -55 -13 -30 -27 -55 -31 -55 -5 0 -8 -18 -8 -40 0 -22 -4
-40 -10 -40 -6 0 -10 -58 -10 -155 0 -97 4 -155 10 -155 6 0 10 -13 10 -30 0
-16 5 -30 10 -30 6 0 10 -10 10 -22 0 -13 16 -49 35 -81 19 -32 35 -60 35 -62
0 -4 55 -65 87 -98 40 -40 94 -87 100 -87 4 0 39 -15 77 -34 90 -43 132 -56
184 -56 23 0 42 -4 42 -10 0 -6 98 -10 275 -10 l275 0 0 -2876 c0 -2479 -2
-2877 -14 -2890 -8 -8 -28 -14 -45 -14 -17 0 -31 -4 -31 -9 0 -5 -15 -11 -32
-14 -69 -10 -298 -73 -292 -80 4 -4 -7 -7 -24 -7 -56 0 -139 -97 -143 -167 -4
-52 12 -109 37 -136 13 -14 24 -30 24 -35 0 -5 14 -15 30 -22 17 -7 30 -16 30
-21 0 -5 553 -9 1285 -9 l1285 0 0 880 c0 580 3 880 10 880 6 0 10 14 10 30 0
17 5 30 10 30 6 0 10 7 10 15 0 8 4 15 9 15 5 0 13 9 16 20 3 11 13 20 21 20
8 0 14 5 14 10 0 6 7 10 15 10 8 0 15 4 15 8 0 5 12 15 28 23 23 12 310 14
1892 17 1649 2 1871 0 1917 -13 29 -9 53 -20 53 -25 0 -6 7 -10 15 -10 18 0
56 -36 76 -71 39 -70 39 -68 39 -966 l0 -873 1280 0 c847 0 1280 3 1280 10 0
6 9 10 20 10 11 0 20 5 20 10 0 6 5 10 11 10 14 0 39 25 39 39 0 6 5 11 10 11
6 0 10 9 10 20 0 11 5 20 10 20 6 0 10 26 10 57 0 57 -17 123 -32 123 -4 0 -8
5 -8 11 0 14 -41 48 -57 49 -7 0 -13 5 -13 10 0 6 -9 10 -20 10 -11 0 -20 5
-20 10 0 6 -12 10 -27 10 -15 0 -40 4 -57 9 -17 5 -58 17 -91 26 -33 9 -74 21
-91 26 -17 5 -42 9 -57 9 -15 0 -27 5 -27 10 0 6 -12 10 -26 10 -14 0 -33 8
-42 17 -16 15 -17 214 -20 2867 -1 1568 0 2861 3 2874 l5 22 270 0 c149 0 270
4 270 8 0 5 28 10 62 11 35 1 65 6 68 10 3 4 17 11 32 15 41 10 158 67 158 77
0 5 5 9 10 9 6 0 26 15 45 33 19 17 40 37 47 43 28 25 78 85 78 94 0 6 5 10
10 10 6 0 10 9 10 20 0 11 5 20 10 20 6 0 10 9 10 19 0 11 3 21 8 23 12 5 42
77 42 103 0 13 5 25 11 27 7 2 11 52 10 148 0 118 -4 154 -19 195 -40 104 -54
135 -63 135 -5 0 -9 9 -9 20 0 11 -4 20 -10 20 -5 0 -10 4 -10 10 0 22 -186
210 -207 210 -5 0 -15 9 -23 20 -8 11 -19 20 -25 20 -5 0 -31 20 -57 45 -27
25 -53 45 -58 45 -6 0 -21 10 -34 23 -12 12 -35 31 -50 42 -16 11 -39 30 -52
43 -13 12 -26 22 -29 22 -3 0 -17 10 -30 23 -13 12 -40 36 -60 52 -20 17 -43
36 -50 43 -8 6 -19 12 -25 12 -7 0 -24 13 -38 28 -15 15 -45 41 -67 57 -22 17
-50 40 -63 53 -13 12 -26 22 -30 22 -4 0 -26 18 -50 40 -23 22 -47 40 -52 40
-5 0 -29 18 -52 40 -24 22 -46 40 -50 40 -4 0 -18 11 -32 25 -14 14 -28 25
-31 25 -3 0 -17 10 -30 23 -13 12 -40 36 -60 52 -20 17 -43 36 -50 43 -8 6
-21 12 -29 12 -9 0 -16 5 -16 11 0 13 -13 26 -75 69 -28 19 -65 49 -83 67 -18
18 -36 33 -41 33 -4 0 -22 14 -39 30 -18 17 -36 30 -42 30 -5 0 -10 5 -10 10
0 6 -5 10 -10 10 -6 0 -21 9 -33 21 -12 11 -35 30 -51 42 -15 12 -39 32 -52
45 -12 12 -26 22 -29 22 -3 0 -17 10 -30 23 -65 59 -75 67 -85 67 -5 0 -10 5
-10 10 0 6 -7 10 -15 10 -8 0 -15 5 -15 10 0 6 -5 10 -10 10 -6 0 -21 10 -34
23 -36 35 -76 67 -82 67 -4 0 -14 8 -23 18 -9 10 -34 31 -56 47 -22 17 -51 41
-65 55 -14 14 -37 32 -51 40 -29 16 -87 62 -124 98 -13 12 -27 22 -30 22 -3 0
-16 10 -29 23 -13 12 -36 31 -52 42 -15 11 -38 30 -50 43 -13 12 -30 22 -39
22 -8 0 -15 7 -15 15 0 8 -4 15 -10 15 -5 0 -25 14 -43 30 -19 17 -38 30 -42
30 -4 0 -19 13 -33 28 -15 15 -45 41 -67 57 -22 17 -47 38 -56 47 -9 10 -19
18 -23 18 -6 0 -43 30 -80 65 -12 11 -33 26 -48 34 -16 8 -28 18 -28 23 0 4
-5 8 -10 8 -6 0 -21 10 -34 23 -13 12 -36 31 -51 42 -16 11 -41 32 -58 48 -16
15 -33 27 -37 27 -4 0 -27 18 -51 40 -24 22 -48 40 -52 40 -5 0 -21 12 -35 28
-15 15 -45 40 -67 57 -22 16 -47 37 -56 47 -9 10 -21 18 -28 18 -6 0 -11 4
-11 8 0 4 -12 15 -27 24 -16 9 -39 26 -53 38 -14 12 -35 30 -48 41 -12 10 -25
19 -27 19 -5 0 -18 11 -80 68 -13 12 -27 22 -30 22 -3 0 -16 9 -28 20 -40 37
-134 110 -141 110 -4 0 -21 15 -39 33 -18 17 -46 41 -61 52 -16 11 -39 30 -52
43 -13 12 -28 22 -34 22 -5 0 -10 4 -10 8 0 4 -18 19 -40 32 -22 14 -40 31
-40 38 0 6 -6 12 -13 12 -7 0 -23 9 -35 20 -12 11 -24 20 -27 20 -3 0 -21 15
-40 33 -44 42 -63 57 -70 57 -3 0 -17 11 -31 25 -14 14 -28 25 -33 25 -4 0
-31 23 -59 50 -29 28 -58 50 -65 50 -7 0 -19 9 -27 20 -8 11 -18 20 -22 20 -8
0 -46 30 -84 68 -13 12 -26 22 -29 22 -4 0 -12 6 -19 13 -7 6 -27 23 -46 37
-18 14 -41 33 -51 43 -11 9 -23 17 -29 17 -5 0 -10 5 -10 10 0 6 -7 10 -15 10
-8 0 -15 4 -15 9 0 4 -36 25 -80 45 -73 33 -86 36 -167 35 -59 -1 -106 -8
-143 -21z m239 -645 c25 -21 48 -41 49 -45 2 -5 10 -8 18 -8 8 0 14 -4 14 -10
0 -5 5 -10 10 -10 10 0 20 -8 85 -67 13 -13 27 -23 30 -23 3 0 17 -11 31 -25
14 -14 28 -25 32 -25 4 0 26 -18 50 -40 23 -22 47 -40 52 -40 6 0 21 -10 34
-22 12 -13 35 -32 51 -43 15 -11 43 -35 61 -52 18 -18 36 -33 39 -33 6 0 14
-6 61 -47 59 -52 74 -63 84 -63 6 0 10 -4 10 -10 0 -5 5 -10 10 -10 6 0 21
-10 34 -22 36 -36 76 -68 82 -68 4 0 14 -8 23 -18 9 -9 34 -30 56 -47 22 -16
52 -42 67 -57 14 -15 31 -28 37 -28 6 0 11 -4 11 -10 0 -5 6 -10 13 -10 12 0
44 -26 114 -90 12 -11 25 -20 28 -20 3 0 17 -11 30 -24 13 -13 30 -26 37 -29
10 -4 10 -8 -2 -17 -9 -7 -58 -10 -130 -9 -63 1 -283 1 -487 0 l-373 -1 0
-275 0 -275 856 0 c631 0 861 -3 877 -12 12 -6 38 -26 57 -45 19 -18 39 -33
43 -33 5 0 22 -13 37 -30 15 -16 32 -30 37 -30 5 0 31 -20 56 -45 26 -25 51
-45 56 -45 5 0 22 -12 38 -27 16 -16 39 -35 52 -43 13 -8 34 -25 47 -37 13
-13 26 -23 29 -23 5 0 18 -11 80 -67 13 -13 28 -23 32 -23 5 0 15 -9 23 -20 8
-11 20 -20 27 -20 7 0 34 -20 61 -45 26 -25 51 -45 55 -45 5 0 22 -13 37 -30
15 -16 31 -30 34 -30 3 0 15 -8 25 -17 56 -52 82 -73 91 -73 6 0 10 -4 10 -10
0 -5 4 -10 10 -10 5 0 28 -18 50 -39 32 -31 37 -40 24 -45 -9 -3 -203 -6 -430
-6 -351 1 -417 -2 -429 -14 -21 -21 -22 -490 -2 -511 11 -11 128 -26 172 -23
6 1 292 3 638 5 401 2 634 0 646 -6 12 -7 28 -7 49 1 24 9 39 9 71 -2 23 -7
41 -17 41 -21 0 -4 8 -10 18 -13 9 -3 35 -23 57 -43 22 -21 60 -51 83 -67 23
-16 42 -32 42 -36 0 -3 12 -13 28 -21 15 -8 36 -23 48 -34 11 -11 33 -29 49
-40 15 -11 43 -35 61 -52 18 -18 36 -33 39 -33 4 0 13 -6 20 -12 8 -7 28 -24
45 -38 18 -14 40 -33 51 -42 10 -10 24 -18 29 -18 6 0 10 -4 10 -10 0 -5 5
-10 10 -10 10 0 20 -8 85 -67 13 -13 27 -23 30 -23 3 0 17 -11 31 -25 14 -14
28 -25 32 -25 4 0 26 -18 50 -40 23 -22 47 -40 53 -40 26 0 59 -59 59 -106 0
-28 -8 -44 -36 -72 l-37 -37 -401 -6 c-382 -5 -456 -10 -456 -30 0 -5 -11 -9
-25 -9 -14 0 -25 -4 -25 -10 0 -5 -7 -10 -15 -10 -9 0 -27 -11 -41 -25 -14
-14 -29 -25 -34 -25 -5 0 -11 -8 -15 -19 -3 -10 -14 -28 -24 -39 -9 -12 -23
-40 -30 -64 -7 -24 -17 -57 -22 -74 -5 -17 -9 -271 -9 -586 0 -498 -2 -556
-16 -562 -9 -3 -157 -6 -329 -6 -172 0 -320 -3 -329 -6 -14 -5 -16 -38 -16
-268 0 -190 3 -265 12 -274 9 -9 99 -12 345 -12 l333 0 0 -2129 c0 -1932 -1
-2129 -16 -2135 -20 -8 -912 -8 -941 0 l-23 6 -3 622 c-4 596 -8 706 -28 706
-5 0 -9 20 -9 45 0 25 -4 45 -10 45 -5 0 -10 7 -10 17 0 18 -69 146 -82 151
-4 2 -8 10 -8 18 0 8 -4 14 -10 14 -5 0 -10 4 -10 10 0 18 -50 73 -114 125
-21 17 -43 36 -51 42 -7 7 -18 13 -24 13 -6 0 -11 5 -11 10 0 6 -9 10 -20 10
-11 0 -20 5 -20 10 0 6 -5 10 -11 10 -6 0 -23 8 -37 18 -15 10 -54 27 -87 37
-33 11 -64 23 -70 27 -5 4 -30 8 -56 8 -26 0 -51 5 -54 10 -9 14 -3815 14
-3815 0 0 -5 -25 -10 -55 -10 -30 0 -55 -4 -55 -10 0 -5 -12 -10 -26 -10 -28
0 -177 -66 -182 -81 -2 -5 -12 -9 -23 -9 -11 0 -35 -15 -53 -32 -18 -18 -45
-42 -60 -52 -46 -33 -66 -53 -66 -65 0 -6 -4 -11 -10 -11 -5 0 -10 -4 -10 -10
0 -5 -8 -19 -17 -29 -41 -45 -73 -96 -73 -116 0 -8 -4 -15 -10 -15 -5 0 -10
-9 -10 -20 0 -11 -4 -20 -10 -20 -5 0 -10 -9 -10 -19 0 -11 -4 -22 -9 -25 -5
-3 -11 -20 -14 -38 -3 -18 -11 -53 -18 -78 -8 -32 -13 -230 -16 -668 -4 -568
-6 -623 -21 -631 -21 -11 -932 -14 -950 -3 -10 7 -12 191 -10 888 l3 879 398
3 397 2 0 280 0 280 -400 0 -400 0 0 1510 0 1510 386 0 c321 0 388 2 400 14
11 12 14 63 14 279 0 232 -2 266 -16 271 -9 3 -188 6 -400 6 l-384 0 -4 23
c-19 93 -29 127 -37 127 -5 0 -9 9 -9 20 0 11 -4 20 -10 20 -5 0 -10 5 -10 11
0 13 -64 79 -77 79 -5 0 -15 9 -23 20 -8 11 -22 20 -32 20 -10 0 -18 4 -18 8
0 23 -133 32 -489 32 -334 0 -376 2 -402 17 -38 23 -62 74 -54 116 6 32 44 87
59 87 4 0 17 10 30 23 36 35 76 67 82 67 4 0 14 8 23 18 9 10 34 31 56 47 22
17 52 42 67 57 14 16 31 28 37 28 7 0 22 10 35 23 12 12 35 31 50 42 16 11 39
30 52 43 13 12 26 22 29 22 5 0 18 11 80 68 13 12 29 22 35 22 5 0 10 5 10 10
0 6 7 10 15 10 8 0 15 5 15 10 0 6 5 10 11 10 7 0 19 8 28 18 9 10 34 31 56
48 22 16 55 44 73 62 18 17 36 32 40 32 4 0 26 18 50 40 23 22 47 40 52 40 6
0 21 10 34 23 12 12 35 31 50 42 16 11 39 30 52 43 13 12 26 22 29 22 5 0 18
11 80 68 13 12 27 22 30 22 3 0 19 14 37 30 17 17 35 30 40 30 5 0 16 7 24 15
14 13 118 15 815 15 680 0 803 2 815 14 11 12 14 63 14 274 0 228 -2 261 -16
266 -9 3 -213 6 -455 6 -241 0 -439 3 -439 6 0 8 19 25 65 59 22 17 52 42 67
57 14 16 29 28 33 28 4 0 26 15 49 32 22 18 47 37 54 43 7 5 24 20 37 33 13
12 27 22 30 22 5 0 18 11 80 68 13 12 27 22 30 22 3 0 17 11 31 25 14 14 29
25 34 25 4 0 28 18 51 40 24 22 47 40 52 40 5 0 22 14 37 30 15 17 32 30 37
30 5 0 31 20 56 45 26 25 51 45 55 45 4 0 27 18 51 40 23 22 47 40 51 40 5 0
20 11 34 25 14 14 28 25 31 25 5 0 18 11 80 68 13 12 27 22 30 22 3 0 16 9 28
20 35 32 136 110 142 110 3 0 24 18 46 40 23 22 45 40 50 40 5 0 24 16 43 35
20 19 38 35 41 35 4 0 12 6 19 13 7 6 27 23 46 37 18 14 41 33 51 43 11 9 24
17 29 17 6 0 10 5 10 10 0 6 5 10 10 10 6 0 21 10 34 23 34 33 75 67 81 67 3
0 16 9 28 20 36 33 135 110 141 110 3 0 25 18 47 40 23 22 45 40 50 40 5 0 24
16 43 35 20 19 38 35 41 35 4 0 12 6 19 13 25 24 62 52 99 77 20 14 37 28 37
33 0 4 5 7 10 7 6 0 21 10 34 23 35 34 75 67 82 67 3 0 18 12 32 28 15 15 53
44 85 65 32 21 76 55 98 77 22 21 49 42 60 45 10 4 19 11 19 16 0 5 23 9 51 9
45 0 58 -5 98 -37z"/>
<path d="M5350 7819 c-52 -5 -115 -14 -140 -20 -25 -6 -65 -13 -90 -16 -25 -3
-49 -9 -54 -14 -6 -5 -29 -9 -53 -9 -24 0 -43 -4 -43 -10 0 -5 -16 -10 -35
-10 -19 0 -35 -4 -35 -9 0 -5 -15 -11 -32 -14 -66 -10 -147 -39 -220 -78 -10
-5 -25 -9 -33 -9 -8 0 -15 -4 -15 -10 0 -5 -9 -10 -20 -10 -11 0 -20 -4 -20
-9 0 -5 -10 -11 -22 -13 -23 -3 -40 -48 -19 -48 6 0 11 -9 11 -20 0 -11 4 -20
8 -20 5 0 17 -18 28 -40 10 -22 22 -40 27 -40 4 0 7 -10 7 -23 0 -12 9 -29 20
-37 11 -8 20 -20 20 -26 0 -15 51 -108 62 -112 4 -2 8 -10 8 -18 0 -8 5 -14
10 -14 6 0 10 -9 10 -20 0 -11 5 -20 10 -20 6 0 10 -9 10 -20 0 -11 3 -20 8
-20 4 0 25 -35 47 -78 22 -42 43 -78 48 -80 4 -2 7 -12 7 -23 0 -10 3 -19 8
-19 4 0 25 -34 46 -75 22 -41 43 -75 48 -75 4 0 8 -9 8 -20 0 -11 5 -20 10
-20 6 0 10 -9 10 -20 0 -11 4 -20 8 -20 5 0 14 -16 22 -35 12 -30 18 -35 47
-35 18 0 33 5 33 10 0 6 9 10 20 10 11 0 28 4 38 9 73 37 179 54 369 58 169 4
173 4 178 26 5 22 10 124 21 450 3 97 10 177 15 177 5 0 9 11 9 25 0 14 -6 25
-12 25 -10 0 -10 2 -1 8 9 6 13 62 13 202 l2 195 -39 7 c-74 12 -269 16 -363
7z"/>
<path d="M5990 7665 c0 -54 -4 -95 -10 -95 -5 0 -11 -81 -13 -197 -4 -203 -22
-568 -32 -660 -6 -60 9 -103 37 -103 10 0 18 -4 18 -10 0 -5 7 -10 15 -10 14
0 105 -47 115 -59 3 -3 18 -13 35 -21 28 -14 47 -30 130 -107 19 -18 39 -33
44 -33 5 0 11 -6 13 -12 5 -15 14 -7 73 67 22 27 58 68 80 90 22 23 49 53 60
68 11 15 25 27 32 27 7 0 13 9 13 19 0 11 9 23 20 26 11 3 20 10 20 14 0 4 20
29 45 54 25 26 45 50 45 52 0 5 24 32 108 120 23 24 42 47 42 50 0 3 15 21 33
39 48 51 97 106 97 112 0 2 16 20 35 38 19 19 35 39 35 46 0 11 -44 60 -55 60
-3 0 -21 15 -39 33 -61 59 -105 97 -116 97 -5 0 -10 3 -10 8 0 4 -28 25 -63
47 -34 22 -63 43 -65 47 -2 5 -10 8 -18 8 -8 0 -14 5 -14 10 0 6 -9 10 -20 10
-11 0 -20 4 -20 8 0 4 -27 21 -60 37 -33 17 -60 33 -60 38 0 4 -11 7 -25 7
-14 0 -25 5 -25 10 0 6 -9 10 -20 10 -11 0 -20 5 -20 10 0 6 -9 10 -19 10 -11
0 -23 5 -26 10 -3 6 -15 10 -26 10 -10 0 -19 3 -19 8 0 4 -29 16 -65 27 -36
10 -65 23 -65 27 0 4 -13 8 -30 8 -16 0 -30 5 -30 10 0 6 -18 10 -40 10 -22 0
-40 5 -40 10 0 6 -22 10 -50 10 l-50 0 0 -95z"/>
<path d="M4246 7415 c-14 -14 -32 -25 -41 -25 -8 0 -15 -4 -15 -10 0 -5 -5
-10 -10 -10 -6 0 -22 -10 -35 -22 -62 -57 -75 -68 -80 -68 -7 0 -225 -218
-225 -225 0 -3 -10 -17 -22 -30 -59 -64 -68 -75 -68 -82 0 -5 -9 -15 -20 -23
-11 -8 -20 -21 -20 -29 0 -7 -8 -21 -18 -30 -10 -9 -27 -31 -37 -48 -11 -18
-23 -33 -27 -33 -4 0 -8 -9 -8 -20 0 -11 -4 -20 -10 -20 -5 0 -10 -9 -10 -20
0 -11 -4 -20 -10 -20 -5 0 -10 -7 -10 -15 0 -8 -4 -15 -10 -15 -5 0 -10 -9
-10 -19 0 -11 -4 -21 -8 -23 -12 -4 -62 -109 -62 -128 0 -9 10 -21 23 -27 12
-6 56 -27 98 -47 42 -20 81 -36 87 -36 7 0 12 -4 12 -10 0 -5 9 -10 20 -10 11
0 20 -4 20 -10 0 -5 9 -10 19 -10 11 0 23 -4 26 -10 3 -5 15 -10 25 -10 10 0
20 -3 22 -7 2 -5 31 -21 65 -38 35 -16 63 -33 63 -37 0 -5 14 -8 30 -8 17 0
30 -4 30 -10 0 -5 5 -10 11 -10 16 0 163 -72 167 -82 2 -4 12 -8 23 -8 10 0
19 -4 19 -10 0 -5 11 -10 25 -10 14 0 25 -3 25 -8 0 -4 15 -13 33 -21 17 -7
46 -19 64 -27 17 -8 36 -14 41 -14 6 0 12 -5 14 -12 7 -20 52 0 66 29 6 15 12
33 12 40 0 7 4 13 8 13 5 0 16 17 25 38 9 21 26 48 37 59 11 12 20 27 20 33 0
5 18 29 40 52 22 24 40 46 40 50 0 5 5 8 11 8 12 0 39 25 40 37 0 4 20 24 44
43 24 19 44 42 44 51 1 15 -55 118 -79 146 -5 7 -10 19 -10 28 0 8 -4 15 -10
15 -5 0 -10 10 -10 23 0 12 -9 29 -20 37 -11 8 -20 20 -20 26 0 17 -33 74 -42
74 -5 0 -8 9 -8 20 0 11 -4 20 -10 20 -5 0 -10 9 -10 20 0 11 -4 20 -10 20 -5
0 -10 7 -10 15 0 8 -4 15 -10 15 -5 0 -10 9 -10 20 0 11 -4 20 -9 20 -5 0 -17
20 -28 45 -10 25 -21 45 -25 45 -5 0 -8 9 -8 20 0 11 -4 20 -10 20 -5 0 -10 7
-10 15 0 8 -4 15 -10 15 -5 0 -10 9 -10 20 0 11 -4 20 -9 20 -5 0 -11 8 -14
18 -8 23 -67 126 -77 132 -4 3 -10 16 -11 30 -2 14 -12 32 -21 41 -10 9 -18
21 -18 28 0 20 -49 11 -74 -14z"/>
<path d="M7188 6948 c-27 -28 -48 -54 -48 -59 0 -5 -38 -47 -85 -93 -47 -47
-85 -89 -85 -93 0 -5 -29 -39 -65 -76 -36 -37 -65 -70 -65 -73 0 -2 -14 -19
-30 -37 -80 -84 -120 -131 -120 -139 0 -4 -5 -8 -10 -8 -11 0 -60 -45 -60 -54
0 -7 -36 -50 -77 -92 -18 -18 -33 -38 -33 -44 0 -5 -4 -10 -10 -10 -5 0 -10
-9 -10 -20 0 -11 5 -20 10 -20 6 0 10 -6 10 -13 0 -8 13 -38 30 -68 16 -30 30
-61 30 -69 0 -8 7 -28 15 -44 8 -15 15 -41 15 -57 0 -16 5 -29 10 -29 6 0 10
-32 10 -75 0 -92 15 -117 64 -104 96 25 122 33 130 40 6 5 23 9 38 9 15 0 28
5 28 10 0 6 16 10 35 10 19 0 35 4 35 9 0 5 15 11 33 14 17 2 70 17 117 32 47
15 100 29 118 32 17 3 32 9 32 14 0 5 14 9 30 9 17 0 30 5 30 10 0 6 16 10 35
10 19 0 35 5 35 10 0 6 11 10 25 10 13 0 34 4 47 9 60 23 188 61 207 61 11 0
21 5 21 10 0 6 7 10 16 10 13 0 15 10 11 58 -5 68 -46 236 -58 240 -5 2 -9 15
-9 28 0 13 -4 24 -10 24 -5 0 -10 14 -10 30 0 17 -4 30 -10 30 -5 0 -10 8 -10
18 0 10 -16 51 -35 91 -19 39 -35 76 -35 81 0 6 -4 10 -10 10 -5 0 -10 9 -10
20 0 11 -4 20 -10 20 -5 0 -10 9 -10 20 0 11 -4 20 -10 20 -5 0 -10 7 -10 15
0 8 -4 15 -10 15 -5 0 -10 9 -10 19 0 11 -3 21 -7 23 -10 4 -63 85 -63 96 0 4
-9 14 -20 22 -11 8 -20 19 -20 25 0 7 -11 22 -24 34 -14 13 -30 36 -36 52 -7
16 -20 29 -29 28 -9 0 -37 -23 -63 -51z"/>
<path d="M3386 6244 c-3 -9 -6 -26 -6 -39 0 -13 -4 -27 -10 -30 -5 -3 -10 -19
-10 -36 0 -16 -4 -29 -9 -29 -5 0 -12 -26 -15 -57 -2 -32 -9 -87 -15 -123 -18
-116 -31 -331 -30 -512 l1 -178 359 0 c233 0 359 -4 359 -10 0 -5 11 -10 25
-10 14 0 25 5 25 10 0 6 63 10 170 10 168 0 170 0 174 23 3 12 7 135 9 274 l4
252 -28 12 c-16 6 -29 15 -29 20 0 5 -9 9 -20 9 -11 0 -20 5 -20 10 0 6 -11
10 -25 10 -14 0 -25 5 -25 10 0 6 -9 10 -20 10 -11 0 -20 5 -20 10 0 6 -7 10
-14 10 -8 0 -36 11 -62 25 -26 14 -53 25 -60 25 -8 0 -14 3 -14 8 0 10 -50 32
-72 32 -10 0 -18 5 -18 10 0 6 -9 10 -20 10 -11 0 -20 5 -20 10 0 6 -6 10 -14
10 -18 0 -76 32 -76 43 0 4 -9 7 -19 7 -11 0 -23 5 -26 10 -3 6 -15 10 -26 10
-10 0 -19 5 -19 10 0 6 -13 10 -29 10 -16 0 -31 3 -33 8 -4 9 -192 102 -207
102 -6 0 -11 5 -11 10 0 6 -9 10 -20 10 -11 0 -20 5 -20 10 0 17 -57 12 -64
-6z"/>
<path d="M4840 6120 c0 -5 -9 -10 -19 -10 -31 0 -42 -59 -17 -92 15 -21 62
-24 80 -5 33 33 30 97 -5 97 -10 0 -19 5 -19 10 0 6 -4 10 -10 10 -5 0 -10 -4
-10 -10z"/>
<path d="M6190 6120 c0 -5 -5 -10 -11 -10 -17 0 -39 -27 -39 -48 0 -29 34 -62
63 -62 30 0 67 35 67 63 0 20 -22 47 -39 47 -6 0 -11 5 -11 10 0 6 -7 10 -15
10 -8 0 -15 -4 -15 -10z"/>
<path d="M7680 5730 c0 -5 -9 -10 -21 -10 -18 0 -149 -39 -254 -76 -23 -8 -51
-14 -63 -14 -12 0 -22 -4 -22 -10 0 -5 -16 -10 -35 -10 -19 0 -35 -4 -35 -10
0 -5 -13 -10 -29 -10 -17 0 -33 -4 -36 -10 -3 -5 -15 -10 -26 -10 -20 0 -171
-46 -201 -61 -10 -5 -31 -9 -48 -9 -16 0 -30 -4 -30 -10 0 -5 -13 -10 -30 -10
-16 0 -30 -4 -30 -9 0 -5 -12 -11 -27 -14 -54 -10 -116 -28 -134 -38 -18 -9
-19 -26 -19 -264 0 -139 3 -260 6 -269 6 -14 64 -16 555 -16 l549 0 0 435 0
435 -35 0 c-19 0 -35 -4 -35 -10z"/>
<path d="M4915 5526 c-23 -21 -35 -42 -35 -60 0 -14 -4 -26 -10 -26 -6 0 -10
-58 -10 -155 0 -97 4 -155 10 -155 6 0 10 -12 10 -28 0 -34 54 -102 81 -102
67 0 127 163 116 316 -8 128 -39 203 -94 232 -30 16 -30 16 -68 -22z"/>
<path d="M3296 4984 c-3 -9 -6 -184 -6 -390 l0 -374 -212 -2 -213 -3 -3 -256
c-2 -229 -1 -257 14 -263 21 -8 5257 -8 5289 0 l25 6 0 243 c0 134 -3 250 -6
259 -5 14 -33 16 -206 16 -159 0 -202 3 -214 14 -11 12 -14 55 -14 215 l0 201
-552 -2 -553 -3 -3 -212 -2 -213 -1115 0 -1115 0 0 374 c0 206 -3 381 -6 390
-6 14 -64 16 -554 16 -490 0 -548 -2 -554 -16z"/>
<path d="M4808 4568 c-23 -29 -23 -59 1 -86 31 -37 89 -22 93 25 3 43 -3 60
-27 71 -36 17 -47 15 -67 -10z"/>
<path d="M6162 4567 c-27 -29 -28 -57 -3 -85 24 -29 56 -28 86 3 31 30 31 43
1 78 -29 33 -55 34 -84 4z"/>
<path d="M6920 1950 c0 -5 -16 -10 -35 -10 -19 0 -55 -12 -81 -26 -73 -41
-164 -140 -164 -179 0 -8 -4 -15 -10 -15 -13 0 -13 -227 0 -243 6 -7 27 -37
47 -67 42 -63 57 -80 72 -80 6 0 20 -8 31 -17 36 -32 103 -52 171 -52 66 -1
169 24 169 41 0 4 8 8 18 8 10 0 24 9 32 20 8 11 18 20 23 20 12 0 37 27 37
39 0 6 5 11 10 11 6 0 10 9 10 19 0 11 5 21 11 23 15 5 49 115 49 157 -1 65
-34 181 -52 181 -5 0 -8 5 -8 10 0 15 -85 100 -99 100 -6 0 -11 4 -11 8 0 14
-75 42 -113 42 -21 0 -37 5 -37 10 0 6 -16 10 -35 10 -19 0 -35 -4 -35 -10z"/>
<path d="M4045 1926 c-68 -14 -152 -51 -176 -78 -9 -10 -21 -18 -27 -18 -6 0
-15 -6 -19 -14 -4 -8 -23 -30 -40 -50 -18 -19 -33 -42 -33 -51 0 -8 -4 -15
-10 -15 -5 0 -10 -13 -10 -30 0 -16 -4 -30 -10 -30 -6 0 -10 -47 -10 -120 0
-73 4 -120 10 -120 6 0 10 -15 10 -33 0 -21 7 -38 20 -47 11 -8 20 -19 20 -25
0 -11 93 -115 103 -115 3 0 23 -10 44 -22 21 -13 54 -29 73 -35 41 -15 198
-17 232 -4 85 33 115 48 129 63 9 10 20 18 24 18 4 0 16 10 27 23 11 12 30 34
44 49 13 15 24 35 24 43 0 8 5 15 10 15 6 0 10 9 10 20 0 11 4 20 9 20 31 0
31 286 0 306 -5 3 -9 14 -9 25 0 10 -4 19 -8 19 -4 0 -15 12 -24 28 -23 39
-84 102 -97 102 -7 0 -20 8 -31 18 -18 16 -72 37 -166 61 -47 13 -41 13 -119
-3z"/>
<path d="M5093 1857 c-18 -6 -33 -15 -33 -19 0 -4 -5 -8 -10 -8 -20 0 -75 -65
-99 -117 -26 -57 -33 -165 -12 -186 6 -6 11 -19 11 -29 0 -10 5 -18 10 -18 6
0 10 -7 10 -16 0 -19 78 -94 97 -94 7 0 13 -4 13 -10 0 -5 14 -10 30 -10 17 0
30 -4 30 -10 0 -5 25 -10 55 -10 30 0 55 5 55 10 0 6 8 10 18 10 26 0 82 29
107 55 71 74 113 200 86 253 -5 9 -17 36 -26 59 -21 50 -76 113 -99 113 -9 0
-16 5 -16 10 0 6 -11 10 -25 10 -14 0 -25 5 -25 10 0 13 -135 10 -177 -3z"/>
<path d="M5905 1857 c-10 -7 -25 -18 -33 -24 -7 -7 -16 -13 -20 -13 -4 0 -19
-20 -34 -44 -50 -78 -35 -184 35 -250 52 -49 160 -64 215 -28 42 26 91 79 102
108 20 53 5 174 -22 174 -5 0 -8 5 -8 11 0 16 -26 39 -44 39 -9 0 -16 5 -16
10 0 6 -7 10 -15 10 -8 0 -15 5 -15 10 0 14 -121 11 -145 -3z"/>
<path d="M6095 1243 c-27 -2 -54 -8 -59 -14 -6 -5 -23 -9 -38 -9 -15 0 -28 -4
-28 -10 0 -5 -7 -10 -15 -10 -8 0 -15 -4 -15 -10 0 -5 -7 -10 -15 -10 -17 0
-28 -8 -80 -57 -19 -18 -37 -33 -40 -33 -10 0 -35 -28 -35 -39 0 -6 -4 -11
-10 -11 -5 0 -10 -7 -10 -15 0 -8 -4 -15 -10 -15 -5 0 -10 -7 -10 -15 0 -8 -4
-15 -10 -15 -5 0 -10 -8 -10 -18 0 -10 -3 -22 -7 -26 -46 -45 -59 -266 -22
-366 11 -30 23 -63 26 -72 3 -10 9 -18 14 -18 5 0 9 -9 9 -20 0 -11 5 -20 10
-20 6 0 10 -4 10 -10 0 -10 21 -37 70 -89 14 -15 49 -41 77 -57 29 -16 53 -32
53 -36 0 -5 9 -8 20 -8 11 0 20 -4 20 -10 0 -5 16 -10 35 -10 19 0 35 -4 35
-10 0 -6 47 -10 120 -10 73 0 120 4 120 10 0 6 12 10 26 10 34 0 128 47 164
82 17 15 37 28 45 28 8 0 15 4 15 8 0 4 16 25 35 45 19 20 35 42 35 47 0 6 5
10 10 10 6 0 10 9 10 20 0 11 4 20 8 20 5 0 21 36 35 81 36 109 37 226 3 319
-37 102 -50 130 -58 130 -4 0 -8 5 -8 11 0 10 -50 60 -137 139 -12 11 -29 20
-38 20 -8 0 -15 5 -15 10 0 6 -11 10 -25 10 -14 0 -25 5 -25 10 0 6 -10 10
-23 10 -13 0 -27 4 -32 9 -12 11 -160 20 -230 14z"/>
<path d="M4935 1060 c-3 -5 -15 -10 -26 -10 -36 0 -135 -58 -191 -112 -55 -53
-93 -110 -81 -122 4 -3 1 -6 -5 -6 -7 0 -12 -11 -12 -25 0 -14 -4 -25 -10 -25
-6 0 -10 -50 -10 -130 0 -80 4 -130 10 -130 6 0 10 -7 10 -17 0 -59 170 -243
225 -243 8 0 15 -4 15 -10 0 -5 14 -10 30 -10 17 0 30 -4 30 -10 0 -6 42 -10
105 -10 63 0 105 4 105 10 0 6 11 10 25 10 23 0 50 11 79 33 29 21 88 57 92
57 12 0 34 29 34 44 0 9 4 16 9 16 14 0 70 115 82 167 18 79 22 144 10 156 -6
6 -11 23 -11 38 0 30 -66 169 -81 169 -5 0 -9 7 -9 16 0 20 -24 44 -44 44 -9
0 -16 5 -16 10 0 6 -5 10 -11 10 -6 0 -17 6 -24 13 -8 6 -20 17 -27 22 -17 13
-80 35 -101 35 -9 0 -17 5 -17 10 0 6 -36 10 -89 10 -50 0 -93 -4 -96 -10z"/>
<path d="M4024 779 c-10 -4 -30 -8 -42 -8 -31 -1 -93 -30 -113 -53 -9 -10 -21
-18 -26 -18 -12 0 -44 -44 -72 -97 -45 -90 -17 -238 61 -315 41 -41 82 -68
103 -68 8 0 15 -4 15 -10 0 -6 37 -10 90 -10 53 0 90 4 90 10 0 6 7 10 15 10
31 0 125 75 125 100 0 5 3 10 8 10 10 0 39 57 47 95 28 122 -40 270 -147 319
-58 25 -133 43 -154 35z"/>
<path d="M7110 590 c-8 -11 -22 -20 -32 -20 -9 0 -20 -9 -23 -20 -3 -11 -11
-20 -16 -20 -5 0 -9 -7 -9 -15 0 -8 -4 -15 -10 -15 -14 0 -13 -136 2 -163 18
-34 84 -97 102 -97 9 0 16 -5 16 -11 0 -6 25 -9 65 -8 36 1 65 6 65 11 0 4 6
8 13 8 19 0 97 75 97 94 0 9 5 16 10 16 14 0 12 111 -2 143 -7 15 -16 27 -20
27 -5 0 -8 5 -8 11 0 14 -25 39 -39 39 -6 0 -11 5 -11 10 0 6 -9 10 -20 10
-11 0 -20 5 -20 10 0 6 -31 10 -73 10 -61 0 -75 -3 -87 -20z"/>
</g>
</svg>
