<?xml version="1.0" encoding="UTF-8"?>
<svg xmlns="http://www.w3.org/2000/svg" xmlns:xlink="http://www.w3.org/1999/xlink" width="24px" height="24px" viewBox="0 0 24 24" version="1.1">
<g id="surface1">
<path style=" stroke:none;fill-rule:nonzero;fill:rgb(0.392157%,31.372549%,28.235294%);fill-opacity:1;" d="M 12 17 C 9.789062 17 8 15.210938 8 13 C 8 10.789062 9.789062 9 12 9 C 14.210938 9 16 10.789062 16 13 C 16 15.210938 14.210938 17 12 17 Z M 18 21 C 18 19.34375 16.65625 18 15 18 L 9 18 C 7.34375 18 6 19.34375 6 21 L 6 24 L 18 24 Z M 18 8 C 15.789062 8 14 6.210938 14 4 C 14 1.789062 15.789062 0 18 0 C 20.210938 0 22 1.789062 22 4 C 22 6.210938 20.210938 8 18 8 Z M 6 8 C 3.789062 8 2 6.210938 2 4 C 2 1.789062 3.789062 0 6 0 C 8.210938 0 10 1.789062 10 4 C 10 6.210938 8.210938 8 6 8 Z M 6 13 C 6 11.523438 6.546875 10.097656 7.535156 9 L 3 9 C 1.34375 9 0 10.34375 0 12 L 0 15 L 6.347656 15 C 6.121094 14.359375 6 13.683594 6 13 Z M 17.652344 15 L 24 15 L 24 12 C 24 10.34375 22.65625 9 21 9 L 16.464844 9 C 17.933594 10.628906 18.390625 12.933594 17.652344 15 Z M 17.652344 15 "/>
</g>
</svg>
